<svg id="Layer_1" data-name="Layer 1" xmlns="http://www.w3.org/2000/svg" viewBox="0 0 64 64">
  <title>NEW_CoinUseIcons_SendToFriendsAndFamily</title>
  <path d="M57.06,20.15A13.7,13.7,0,0,0,47.24,9.33a13.72,13.72,0,0,0-14.31,3.45,41.28,41.28,0,0,0-4,4.82,41.4,41.4,0,0,0-4-4.82A13.71,13.71,0,0,0,10.65,9.33,13.69,13.69,0,0,0,.84,20.15c-.9,4.19.07,8.15,2,11.89A61.56,61.56,0,0,0,13.1,46C17.59,50.71,24.19,58.32,29,63.15,33.7,58.32,40.3,50.71,44.8,46A61.22,61.22,0,0,0,55.07,32,17.56,17.56,0,0,0,57.06,20.15Z" fill="none" stroke="#291f6c" stroke-linecap="round" stroke-miterlimit="10"/>
  <line x1="18.22" y1="33.33" x2="39.67" y2="33.33" fill="none" stroke="#291f6c" stroke-linecap="round" stroke-miterlimit="10"/>
  <polyline points="31.63 41.37 39.67 33.33 31.63 25.28" fill="none" stroke="#291f6c" stroke-linecap="round" stroke-miterlimit="10"/>
</svg>
