<svg id="Layer_1" data-name="Layer 1" xmlns="http://www.w3.org/2000/svg" viewBox="0 0 64 32">
  <title>Best Prices</title>
  <g>
    <path d="M15,15.39a3.51,3.51,0,0,1-3.75-3.19A3.51,3.51,0,0,1,15,9a3.51,3.51,0,0,1,3.75,3.19" fill="none" stroke="#291f6c" stroke-linecap="round" stroke-miterlimit="10" stroke-width="0.5"/>
    <path d="M15,15.39a3.51,3.51,0,0,1,3.75,3.19A3.51,3.51,0,0,1,15,21.77a3.51,3.51,0,0,1-3.75-3.19" fill="none" stroke="#291f6c" stroke-linecap="round" stroke-miterlimit="10" stroke-width="0.5"/>
    <path d="M15,6.27V25.4" fill="none" stroke="#291f6c" stroke-linecap="round" stroke-miterlimit="10" stroke-width="0.5"/>
  </g>
  <path d="M26.35,24.91a14.5,14.5,0,1,1,3.19-9.08" fill="none" stroke="#291f6c" stroke-linecap="round" stroke-miterlimit="10" stroke-width="0.5"/>
  <circle cx="30.61" cy="21.46" r="5.48" fill="none" stroke="#291f6c" stroke-linecap="round" stroke-miterlimit="10" stroke-width="0.5"/>
  <polyline points="34.14 25.75 34.14 30.7 30.59 28.97 27.04 30.7 27.04 25.66" fill="none" stroke="#291f6c" stroke-linecap="round" stroke-linejoin="round" stroke-width="0.5"/>
  <polyline points="28.23 20.58 30.47 23.02 37.91 15.39" fill="none" stroke="#291f6c" stroke-linecap="round" stroke-linejoin="round" stroke-width="0.5"/>
</svg>
