<svg id="Layer_1" data-name="Layer 1" xmlns="http://www.w3.org/2000/svg" viewBox="0 0 64 64">
  <title>NEW_CoinUseIcons_HODL</title>
  <path d="M1.41,45h20a0,0,0,0,1,0,0V63.64a0,0,0,0,1,0,0h-20a.92.92,0,0,1-.92-.92V45.95A.92.92,0,0,1,1.41,45Z" fill="none" stroke="#291f6c" stroke-linecap="round" stroke-miterlimit="10"/>
  <path d="M11.85,26.42h20a0,0,0,0,1,0,0V45a0,0,0,0,1,0,0H10.94a0,0,0,0,1,0,0V27.33A.92.92,0,0,1,11.85,26.42Z" fill="none" stroke="#291f6c" stroke-linecap="round" stroke-miterlimit="10"/>
  <path d="M31.82,26.42H52.71a0,0,0,0,1,0,0V45a0,0,0,0,1,0,0h-20a.92.92,0,0,1-.92-.92V26.42a0,0,0,0,1,0,0Z" transform="translate(84.53 71.45) rotate(-180)" fill="none" stroke="#291f6c" stroke-linecap="round" stroke-miterlimit="10"/>
  <rect x="21.38" y="45.03" width="20.89" height="18.61" fill="none" stroke="#291f6c" stroke-linecap="round" stroke-miterlimit="10"/>
  <path d="M22.3,7.81H41.35a.92.92,0,0,1,.92.92v17.7a0,0,0,0,1,0,0H21.38a0,0,0,0,1,0,0V8.72A.92.92,0,0,1,22.3,7.81Z" fill="none" stroke="#291f6c" stroke-linecap="round" stroke-miterlimit="10"/>
  <path d="M42.22,45h20a.92.92,0,0,1,.92.92V62.72a.92.92,0,0,1-.92.92h-20a0,0,0,0,1,0,0V45A0,0,0,0,1,42.22,45Z" fill="none" stroke="#291f6c" stroke-linecap="round" stroke-miterlimit="10"/>
</svg>
