<svg id="Layer_1" data-name="Layer 1" xmlns="http://www.w3.org/2000/svg" viewBox="0 0 64 64">
  <title>NEW_CoinUseIcons_SendOverseas</title>
  <g>
    <circle cx="28.4" cy="35.59" r="27.6" fill="none" stroke="#291f6c" stroke-linecap="round" stroke-miterlimit="10"/>
    <path d="M28.44,63.21C18.65,57.89,12.8,47.52,12.8,35.59S18.63,13.32,28.4,8" fill="none" stroke="#291f6c" stroke-linecap="round" stroke-miterlimit="10"/>
    <line x1="28.4" y1="63.19" x2="28.4" y2="7.99" fill="none" stroke="#291f6c" stroke-linecap="round" stroke-miterlimit="10"/>
    <line x1="0.8" y1="35.59" x2="56" y2="35.59" fill="none" stroke="#291f6c" stroke-linecap="round" stroke-miterlimit="10"/>
    <path d="M28.44,8c9.79,5.32,15.64,15.69,15.64,27.62s-5.83,22.27-15.6,27.6" fill="none" stroke="#291f6c" stroke-linecap="round" stroke-miterlimit="10"/>
    <path d="M46.9,15.36a26.89,26.89,0,0,0-37,0A29,29,0,0,0,28.4,22,29.09,29.09,0,0,0,46.9,15.36Z" fill="none" stroke="#291f6c" stroke-linecap="round" stroke-miterlimit="10"/>
    <path d="M46.9,55.81a26.87,26.87,0,0,1-37,0,29.18,29.18,0,0,1,37,0Z" fill="none" stroke="#291f6c" stroke-linecap="round" stroke-miterlimit="10"/>
  </g>
</svg>
