<svg id="Layer_1" data-name="Layer 1" xmlns="http://www.w3.org/2000/svg" viewBox="0 0 64 64">
  <title>NEW_CoinUseIcons_CreateDAPPS</title>
  <rect x="0.62" y="7.9" width="55.38" height="55.38" rx="3.38" fill="none" stroke="#291f6c" stroke-linecap="round" stroke-miterlimit="10"/>
  <g>
    <path d="M37,36l4.62,4.62a5.6,5.6,0,0,1,0,7.91h0a5.6,5.6,0,0,1-7.91,0l-7.65-7.64a5.6,5.6,0,0,1,0-7.91h0" fill="none" stroke="#291f6c" stroke-linecap="round" stroke-miterlimit="10"/>
    <path d="M19.6,34.43,15,29.81a5.6,5.6,0,0,1,0-7.91h0a5.6,5.6,0,0,1,7.91,0l7.65,7.64a5.6,5.6,0,0,1,0,7.91h0" fill="none" stroke="#291f6c" stroke-linecap="round" stroke-miterlimit="10"/>
  </g>
</svg>
