<svg width="496.304" height="496.303" xmlns="http://www.w3.org/2000/svg" version="1.1" xml:space="preserve">
 <g>
  <title>Layer 1</title>
  <g id="svg_1">
   <path stroke="#ffffff" fill="#ffffff" d="m249.146,0c-136.832,0 -248.146,111.321 -248.146,248.152c0,136.829 111.314,248.151 248.146,248.151c136.835,0 248.158,-111.322 248.158,-248.151c0,-136.831 -111.324,-248.152 -248.158,-248.152zm0,472.093c-123.473,0 -223.935,-100.459 -223.935,-223.941c0,-123.479 100.462,-223.941 223.935,-223.941c123.488,0 223.947,100.462 223.947,223.941c0,123.482 -100.459,223.941 -223.947,223.941zm71.39,-88.673l0,32.852c0,1.383 -1.123,2.494 -2.482,2.494l-120.604,0c-1.374,0 -2.482,-1.117 -2.482,-2.494l0,-32.852c0,-1.372 1.114,-2.482 2.482,-2.482l34.744,0l0,-175.107l-35.101,0c-1.375,0 -2.468,-1.111 -2.468,-2.474l0,-33.6c0,-1.38 1.1,-2.479 2.468,-2.479l82.293,0c1.371,0 2.482,1.105 2.482,2.479l0,211.181l36.186,0c1.359,0 2.482,1.11 2.482,2.482zm-109.606,-277.493c0,-20.895 16.929,-37.829 37.829,-37.829c20.886,0 37.826,16.935 37.826,37.829s-16.94,37.829 -37.826,37.829c-20.906,0 -37.829,-16.934 -37.829,-37.829z" id="svg_2"/>
  </g>
  <g id="svg_3"/>
  <g id="svg_4"/>
  <g id="svg_5"/>
  <g id="svg_6"/>
  <g id="svg_7"/>
  <g id="svg_8"/>
  <g id="svg_9"/>
  <g id="svg_10"/>
  <g id="svg_11"/>
  <g id="svg_12"/>
  <g id="svg_13"/>
  <g id="svg_14"/>
  <g id="svg_15"/>
  <g id="svg_16"/>
  <g id="svg_17"/>
 </g>

</svg>