<?xml version="1.0" encoding="utf-8"?>
<svg width="1980px" height="510px" viewBox="0 0 1980 510" version="1.1" xmlns="http://www.w3.org/2000/svg">
  <title>Artboard</title>
  <desc>Created with Sketch.</desc>
  <g id="Artboard" stroke="none" stroke-width="1" fill="none" fill-rule="evenodd" stroke-linecap="round">
    <g id="Confetti" transform="translate(20.000000, 13.000000)" stroke="#F2AD9C" stroke-width="4.80000019">
      <g id="Crosses" transform="translate(27.028001, 44.200002)">
        <path d="M260.372012,21.4444453 L268.744012,21.4444453" id="Stroke-1"/>
        <path d="M264.416457,17.4000007 L264.416457,25.772001" id="Stroke-2"/>
        <path d="M338.972015,26.2444455 L347.344016,26.2444455" id="Stroke-1"/>
        <path d="M343.01646,22.2000009 L343.01646,30.5720012" id="Stroke-2"/>
        <path d="M422.972019,55.0444466 L431.344019,55.0444466" id="Stroke-1"/>
        <path d="M427.016463,51.000002 L427.016463,59.3720024" id="Stroke-2"/>
        <path d="M575.972025,4.04444461 L584.344025,4.04444461" id="Stroke-1"/>
        <path d="M580.016469,0 L580.016469,8.37200033" id="Stroke-2"/>
        <path d="M403.772018,7.64444475 L412.144018,7.64444475" id="Stroke-1"/>
        <path d="M407.816462,3.60000014 L407.816462,11.9720005" id="Stroke-2"/>
        <path d="M512.972022,67.6444471 L521.344023,67.6444471" id="Stroke-1"/>
        <path d="M517.016467,63.6000025 L517.016467,71.9720029" id="Stroke-2"/>
        <path d="M280.172013,63.444447 L288.544013,63.444447" id="Stroke-1"/>
        <path d="M284.216458,59.4000024 L284.216458,67.7720027" id="Stroke-2"/>
        <path d="M1071.57204,30.4444457 L1079.94404,30.4444457" id="Stroke-1"/>
        <path d="M1075.61649,26.400001 L1075.61649,34.7720014" id="Stroke-2"/>
        <path d="M1150.17205,35.2444458 L1158.54405,35.2444458" id="Stroke-1"/>
        <path d="M1154.21649,31.2000012 L1154.21649,39.5720016" id="Stroke-2"/>
        <path d="M1234.17205,64.044447 L1242.54405,64.044447" id="Stroke-1"/>
        <path d="M1238.2165,60.0000024 L1238.2165,68.3720027" id="Stroke-2"/>
        <path d="M1387.17206,13.044445 L1395.54406,13.044445" id="Stroke-1"/>
        <path d="M1391.2165,9.00000036 L1391.2165,17.3720007" id="Stroke-2"/>
        <path d="M1214.97205,16.6444451 L1223.34405,16.6444451" id="Stroke-1"/>
        <path d="M1219.01649,12.6000005 L1219.01649,20.9720008" id="Stroke-2"/>
        <path d="M1324.17205,76.6444475 L1332.54405,76.6444475" id="Stroke-1"/>
        <path d="M1328.2165,72.6000029 L1328.2165,80.9720032" id="Stroke-2"/>
        <path d="M1091.37205,72.4444473 L1099.74405,72.4444473" id="Stroke-1"/>
        <path d="M1095.41649,68.4000027 L1095.41649,76.7720031" id="Stroke-2"/>
        <path d="M645.572027,30.4444457 L653.944028,30.4444457" id="Stroke-1"/>
        <path d="M649.616472,26.400001 L649.616472,34.7720014" id="Stroke-2"/>
        <path d="M724.172031,35.2444458 L732.544031,35.2444458" id="Stroke-1"/>
        <path d="M728.216475,31.2000012 L728.216475,39.5720016" id="Stroke-2"/>
        <path d="M808.172034,64.044447 L816.544034,64.044447" id="Stroke-1"/>
        <path d="M812.216479,60.0000024 L812.216479,68.3720027" id="Stroke-2"/>
        <path d="M961.17204,13.044445 L969.54404,13.044445" id="Stroke-1"/>
        <path d="M965.216485,9.00000036 L965.216485,17.3720007" id="Stroke-2"/>
        <path d="M788.972033,16.6444451 L797.344033,16.6444451" id="Stroke-1"/>
        <path d="M793.016478,12.6000005 L793.016478,20.9720008" id="Stroke-2"/>
        <path d="M898.172037,76.6444475 L906.544038,76.6444475" id="Stroke-1"/>
        <path d="M902.216482,72.6000029 L902.216482,80.9720032" id="Stroke-2"/>
        <path d="M665.372028,72.4444473 L673.744029,72.4444473" id="Stroke-1"/>
        <path d="M669.416473,68.4000027 L669.416473,76.7720031" id="Stroke-2"/>
        <path d="M1456.77206,39.444446 L1465.14406,39.444446" id="Stroke-1"/>
        <path d="M1460.8165,35.4000014 L1460.8165,43.7720017" id="Stroke-2"/>
        <path d="M1535.37206,44.2444462 L1543.74406,44.2444462" id="Stroke-1"/>
        <path d="M1539.41651,40.2000016 L1539.41651,48.5720019" id="Stroke-2"/>
        <path d="M1619.37207,73.0444473 L1627.74407,73.0444473" id="Stroke-1"/>
        <path d="M1623.41651,69.0000027 L1623.41651,77.3720031" id="Stroke-2"/>
        <path d="M1772.37207,22.0444453 L1780.74407,22.0444453" id="Stroke-1"/>
        <path d="M1776.41652,18.0000007 L1776.41652,26.372001" id="Stroke-2"/>
        <path d="M1600.17207,25.6444455 L1608.54407,25.6444455" id="Stroke-1"/>
        <path d="M1604.21651,21.6000009 L1604.21651,29.9720012" id="Stroke-2"/>
        <path d="M1709.37207,85.6444478 L1717.74407,85.6444478" id="Stroke-1"/>
        <path d="M1713.41651,81.6000032 L1713.41651,89.9720036" id="Stroke-2"/>
        <path d="M1476.57206,81.4444477 L1484.94406,81.4444477" id="Stroke-1"/>
        <path d="M1480.61651,77.4000031 L1480.61651,85.7720034" id="Stroke-2"/>
        <path d="M405.600018,128.84445 L413.972018,128.84445" id="Stroke-1" transform="translate(409.786018, 129.350005) scale(-1, 1) translate(-409.786018, -129.350005) "/>
        <path d="M408.916462,124.800005 L408.916462,133.172005" id="Stroke-2" transform="translate(409.422018, 128.986005) scale(-1, 1) translate(-409.422018, -128.986005) "/>
        <path d="M327.000015,133.64445 L335.372015,133.64445" id="Stroke-1" transform="translate(331.186015, 134.150005) scale(-1, 1) translate(-331.186015, -134.150005) "/>
        <path d="M330.316459,129.600005 L330.316459,137.972005" id="Stroke-2" transform="translate(330.822015, 133.786005) scale(-1, 1) translate(-330.822015, -133.786005) "/>
        <path d="M243.000011,162.444451 L251.372012,162.444451" id="Stroke-1" transform="translate(247.186012, 162.950006) scale(-1, 1) translate(-247.186012, -162.950006) "/>
        <path d="M246.316456,158.400006 L246.316456,166.772007" id="Stroke-2" transform="translate(246.822012, 162.586006) scale(-1, 1) translate(-246.822012, -162.586006) "/>
        <path d="M90.0000054,111.444449 L98.3720057,111.444449" id="Stroke-1" transform="translate(94.186006, 111.950004) scale(-1, 1) translate(-94.186006, -111.950004) "/>
        <path d="M93.3164499,107.400004 L93.3164499,115.772005" id="Stroke-2" transform="translate(93.822006, 111.586004) scale(-1, 1) translate(-93.822006, -111.586004) "/>
        <path d="M262.200012,115.044449 L270.572013,115.044449" id="Stroke-1" transform="translate(266.386012, 115.550005) scale(-1, 1) translate(-266.386012, -115.550005) "/>
        <path d="M265.516457,111.000004 L265.516457,119.372005" id="Stroke-2" transform="translate(266.022012, 115.186005) scale(-1, 1) translate(-266.022012, -115.186005) "/>
        <path d="M153.000008,175.044451 L161.372008,175.044451" id="Stroke-1" transform="translate(157.186008, 175.550007) scale(-1, 1) translate(-157.186008, -175.550007) "/>
        <path d="M156.316452,171.000007 L156.316452,179.372007" id="Stroke-2" transform="translate(156.822008, 175.186007) scale(-1, 1) translate(-156.822008, -175.186007) "/>
        <path d="M385.800017,170.844451 L394.172017,170.844451" id="Stroke-1" transform="translate(389.986017, 171.350007) scale(-1, 1) translate(-389.986017, -171.350007) "/>
        <path d="M389.116462,166.800007 L389.116462,175.172007" id="Stroke-2" transform="translate(389.622017, 170.986007) scale(-1, 1) translate(-389.622017, -170.986007) "/>
        <path d="M1216.80005,137.84445 L1225.17205,137.84445" id="Stroke-1" transform="translate(1220.986050, 138.350005) scale(-1, 1) translate(-1220.986050, -138.350005) "/>
        <path d="M1220.11649,133.800005 L1220.11649,142.172006" id="Stroke-2" transform="translate(1220.622050, 137.986005) scale(-1, 1) translate(-1220.622050, -137.986005) "/>
        <path d="M1138.20005,142.64445 L1146.57205,142.64445" id="Stroke-1" transform="translate(1142.386047, 143.150006) scale(-1, 1) translate(-1142.386047, -143.150006) "/>
        <path d="M1141.51649,138.600006 L1141.51649,146.972006" id="Stroke-2" transform="translate(1142.022047, 142.786006) scale(-1, 1) translate(-1142.022047, -142.786006) "/>
        <path d="M1054.20004,171.444451 L1062.57204,171.444451" id="Stroke-1" transform="translate(1058.386044, 171.950007) scale(-1, 1) translate(-1058.386044, -171.950007) "/>
        <path d="M1057.51649,167.400007 L1057.51649,175.772007" id="Stroke-2" transform="translate(1058.022044, 171.586007) scale(-1, 1) translate(-1058.022044, -171.586007) "/>
        <path d="M901.200038,120.444449 L909.572038,120.444449" id="Stroke-1" transform="translate(905.386038, 120.950005) scale(-1, 1) translate(-905.386038, -120.950005) "/>
        <path d="M904.516482,116.400005 L904.516482,124.772005" id="Stroke-2" transform="translate(905.022038, 120.586005) scale(-1, 1) translate(-905.022038, -120.586005) "/>
        <path d="M1073.40004,124.044449 L1081.77204,124.044449" id="Stroke-1" transform="translate(1077.586045, 124.550005) scale(-1, 1) translate(-1077.586045, -124.550005) "/>
        <path d="M1076.71649,120.000005 L1076.71649,128.372005" id="Stroke-2" transform="translate(1077.222045, 124.186005) scale(-1, 1) translate(-1077.222045, -124.186005) "/>
        <path d="M964.20004,184.044452 L972.57204,184.044452" id="Stroke-1" transform="translate(968.386040, 184.550007) scale(-1, 1) translate(-968.386040, -184.550007) "/>
        <path d="M967.516485,180.000007 L967.516485,188.372007" id="Stroke-2" transform="translate(968.022040, 184.186007) scale(-1, 1) translate(-968.022040, -184.186007) "/>
        <path d="M1197.00005,179.844452 L1205.37205,179.844452" id="Stroke-1" transform="translate(1201.186050, 180.350007) scale(-1, 1) translate(-1201.186050, -180.350007) "/>
        <path d="M1200.31649,175.800007 L1200.31649,184.172007" id="Stroke-2" transform="translate(1200.822050, 179.986007) scale(-1, 1) translate(-1200.822050, -179.986007) "/>
        <path d="M539.972023,149.74445 L548.344024,149.74445" id="Stroke-1" transform="translate(544.158023, 150.250006) scale(1, -1) translate(-544.158023, -150.250006) "/>
        <path d="M544.016468,146.428006 L544.016468,154.800006" id="Stroke-2" transform="translate(544.522023, 150.614006) scale(1, -1) translate(-544.522023, -150.614006) "/>
        <path d="M618.572026,144.94445 L626.944027,144.94445" id="Stroke-1" transform="translate(622.758027, 145.450006) scale(1, -1) translate(-622.758027, -145.450006) "/>
        <path d="M622.616471,141.628006 L622.616471,150.000006" id="Stroke-2" transform="translate(623.122027, 145.814006) scale(1, -1) translate(-623.122027, -145.814006) "/>
        <path d="M702.57203,116.144449 L710.94403,116.144449" id="Stroke-1" transform="translate(706.758030, 116.650005) scale(1, -1) translate(-706.758030, -116.650005) "/>
        <path d="M706.616474,112.828004 L706.616474,121.200005" id="Stroke-2" transform="translate(707.122030, 117.014005) scale(1, -1) translate(-707.122030, -117.014005) "/>
        <path d="M855.572036,167.144451 L863.944036,167.144451" id="Stroke-1" transform="translate(859.758036, 167.650007) scale(1, -1) translate(-859.758036, -167.650007) "/>
        <path d="M859.61648,163.828007 L859.61648,172.200007" id="Stroke-2" transform="translate(860.122036, 168.014007) scale(1, -1) translate(-860.122036, -168.014007) "/>
        <path d="M683.372029,163.544451 L691.744029,163.544451" id="Stroke-1" transform="translate(687.558029, 164.050007) scale(1, -1) translate(-687.558029, -164.050007) "/>
        <path d="M687.416474,160.228006 L687.416474,168.600007" id="Stroke-2" transform="translate(687.922029, 164.414007) scale(1, -1) translate(-687.922029, -164.414007) "/>
        <path d="M792.572033,103.544449 L800.944034,103.544449" id="Stroke-1" transform="translate(796.758033, 104.050004) scale(1, -1) translate(-796.758033, -104.050004) "/>
        <path d="M796.616478,100.228004 L796.616478,108.600004" id="Stroke-2" transform="translate(797.122033, 104.414004) scale(1, -1) translate(-797.122033, -104.414004) "/>
        <path d="M559.772024,107.744449 L568.144024,107.744449" id="Stroke-1" transform="translate(563.958024, 108.250004) scale(1, -1) translate(-563.958024, -108.250004) "/>
        <path d="M563.816469,104.428004 L563.816469,112.800004" id="Stroke-2" transform="translate(564.322024, 108.614004) scale(1, -1) translate(-564.322024, -108.614004) "/>
        <path d="M1351.17206,158.744451 L1359.54406,158.744451" id="Stroke-1" transform="translate(1355.358056, 159.250006) scale(1, -1) translate(-1355.358056, -159.250006) "/>
        <path d="M1355.2165,155.428006 L1355.2165,163.800007" id="Stroke-2" transform="translate(1355.722056, 159.614006) scale(1, -1) translate(-1355.722056, -159.614006) "/>
        <path d="M1429.77206,198.944451 L1438.14406,198.944451" id="Stroke-1" transform="translate(1433.958059, 199.450006) scale(1, -1) translate(-1433.958059, -199.450006) "/>
        <path d="M1433.8165,195.628006 L1433.8165,204.000006" id="Stroke-2" transform="translate(1434.322059, 199.814006) scale(1, -1) translate(-1434.322059, -199.814006) "/>
        <path d="M1513.77206,125.144449 L1522.14406,125.144449" id="Stroke-1" transform="translate(1517.958062, 125.650005) scale(1, -1) translate(-1517.958062, -125.650005) "/>
        <path d="M1517.81651,121.828005 L1517.81651,130.200005" id="Stroke-2" transform="translate(1518.322062, 126.014005) scale(1, -1) translate(-1518.322062, -126.014005) "/>
        <path d="M1666.77207,176.144451 L1675.14407,176.144451" id="Stroke-1" transform="translate(1670.958068, 176.650007) scale(1, -1) translate(-1670.958068, -176.650007) "/>
        <path d="M1670.81651,172.828007 L1670.81651,181.200007" id="Stroke-2" transform="translate(1671.322068, 177.014007) scale(1, -1) translate(-1671.322068, -177.014007) "/>
        <path d="M1494.57206,172.544451 L1502.94406,172.544451" id="Stroke-1" transform="translate(1498.758061, 173.050007) scale(1, -1) translate(-1498.758061, -173.050007) "/>
        <path d="M1498.61651,169.228007 L1498.61651,177.600007" id="Stroke-2" transform="translate(1499.122061, 173.414007) scale(1, -1) translate(-1499.122061, -173.414007) "/>
        <path d="M1603.77207,112.544449 L1612.14407,112.544449" id="Stroke-1" transform="translate(1607.958066, 113.050004) scale(1, -1) translate(-1607.958066, -113.050004) "/>
        <path d="M1607.81651,109.228004 L1607.81651,117.600005" id="Stroke-2" transform="translate(1608.322066, 113.414005) scale(1, -1) translate(-1608.322066, -113.414005) "/>
        <path d="M1370.97206,116.744449 L1379.34406,116.744449" id="Stroke-1" transform="translate(1375.158056, 117.250005) scale(1, -1) translate(-1375.158056, -117.250005) "/>
        <path d="M1375.0165,113.428005 L1375.0165,121.800005" id="Stroke-2" transform="translate(1375.522056, 117.614005) scale(1, -1) translate(-1375.522056, -117.614005) "/>
        <path d="M1661.8,227.444445 L1670.172,227.444445" id="Stroke-1" transform="translate(1665.985998, 227.950001) scale(-1, 1) translate(-1665.985998, -227.950001) "/>
        <path d="M1665.11644,223.400001 L1665.11644,231.772001" id="Stroke-2" transform="translate(1665.621998, 227.586001) scale(-1, 1) translate(-1665.621998, -227.586001) "/>
        <path d="M1583.19999,232.244445 L1591.57199,232.244445" id="Stroke-1" transform="translate(1587.385994, 232.750001) scale(-1, 1) translate(-1587.385994, -232.750001) "/>
        <path d="M1586.51644,228.200001 L1586.51644,236.572001" id="Stroke-2" transform="translate(1587.021994, 232.386001) scale(-1, 1) translate(-1587.021994, -232.386001) "/>
        <path d="M1499.19999,261.044447 L1507.57199,261.044447" id="Stroke-1" transform="translate(1503.385991, 261.550002) scale(-1, 1) translate(-1503.385991, -261.550002) "/>
        <path d="M1502.51644,257.000002 L1502.51644,265.372002" id="Stroke-2" transform="translate(1503.021991, 261.186002) scale(-1, 1) translate(-1503.021991, -261.186002) "/>
        <path d="M1346.19998,210.044445 L1354.57199,210.044445" id="Stroke-1" transform="translate(1350.385985, 210.550000) scale(-1, 1) translate(-1350.385985, -210.550000) "/>
        <path d="M1349.51643,206 L1349.51643,214.372" id="Stroke-2" transform="translate(1350.021985, 210.186000) scale(-1, 1) translate(-1350.021985, -210.186000) "/>
        <path d="M1518.39999,213.644445 L1526.77199,213.644445" id="Stroke-1" transform="translate(1522.585992, 214.150000) scale(-1, 1) translate(-1522.585992, -214.150000) "/>
        <path d="M1521.71644,209.6 L1521.71644,217.972" id="Stroke-2" transform="translate(1522.221992, 213.786000) scale(-1, 1) translate(-1522.221992, -213.786000) "/>
        <path d="M1409.19999,273.644447 L1417.57199,273.644447" id="Stroke-1" transform="translate(1413.385988, 274.150003) scale(-1, 1) translate(-1413.385988, -274.150003) "/>
        <path d="M1412.51643,269.600003 L1412.51643,277.972003" id="Stroke-2" transform="translate(1413.021988, 273.786003) scale(-1, 1) translate(-1413.021988, -273.786003) "/>
        <path d="M1642,269.444447 L1650.372,269.444447" id="Stroke-1" transform="translate(1646.185997, 269.950003) scale(-1, 1) translate(-1646.185997, -269.950003) "/>
        <path d="M1645.31644,265.400002 L1645.31644,273.772003" id="Stroke-2" transform="translate(1645.821997, 269.586003) scale(-1, 1) translate(-1645.821997, -269.586003) "/>
        <path d="M850.599965,236.444446 L858.971966,236.444446" id="Stroke-1" transform="translate(854.785965, 236.950001) scale(-1, 1) translate(-854.785965, -236.950001) "/>
        <path d="M853.91641,232.400001 L853.91641,240.772001" id="Stroke-2" transform="translate(854.421965, 236.586001) scale(-1, 1) translate(-854.421965, -236.586001) "/>
        <path d="M771.999962,241.244446 L780.371962,241.244446" id="Stroke-1" transform="translate(776.185962, 241.750001) scale(-1, 1) translate(-776.185962, -241.750001) "/>
        <path d="M775.316407,237.200001 L775.316407,245.572002" id="Stroke-2" transform="translate(775.821962, 241.386001) scale(-1, 1) translate(-775.821962, -241.386001) "/>
        <path d="M687.999959,270.044447 L696.371959,270.044447" id="Stroke-1" transform="translate(692.185959, 270.550003) scale(-1, 1) translate(-692.185959, -270.550003) "/>
        <path d="M691.316403,266.000002 L691.316403,274.372003" id="Stroke-2" transform="translate(691.821959, 270.186003) scale(-1, 1) translate(-691.821959, -270.186003) "/>
        <path d="M534.999953,219.044445 L543.371953,219.044445" id="Stroke-1" transform="translate(539.185953, 219.550001) scale(-1, 1) translate(-539.185953, -219.550001) "/>
        <path d="M538.316397,215 L538.316397,223.372001" id="Stroke-2" transform="translate(538.821953, 219.186001) scale(-1, 1) translate(-538.821953, -219.186001) "/>
        <path d="M707.19996,222.644445 L715.57196,222.644445" id="Stroke-1" transform="translate(711.385960, 223.150001) scale(-1, 1) translate(-711.385960, -223.150001) "/>
        <path d="M710.516404,218.600001 L710.516404,226.972001" id="Stroke-2" transform="translate(711.021960, 222.786001) scale(-1, 1) translate(-711.021960, -222.786001) "/>
        <path d="M597.999955,282.644447 L606.371956,282.644447" id="Stroke-1" transform="translate(602.185955, 283.150003) scale(-1, 1) translate(-602.185955, -283.150003) "/>
        <path d="M601.3164,278.600003 L601.3164,286.972003" id="Stroke-2" transform="translate(601.821955, 282.786003) scale(-1, 1) translate(-601.821955, -282.786003) "/>
        <path d="M830.799964,278.444447 L839.171965,278.444447" id="Stroke-1" transform="translate(834.985965, 278.950003) scale(-1, 1) translate(-834.985965, -278.950003) "/>
        <path d="M834.116409,274.400003 L834.116409,282.772003" id="Stroke-2" transform="translate(834.621965, 278.586003) scale(-1, 1) translate(-834.621965, -278.586003) "/>
        <path d="M1276.59998,236.444446 L1284.97198,236.444446" id="Stroke-1" transform="translate(1280.785982, 236.950001) scale(-1, 1) translate(-1280.785982, -236.950001) "/>
        <path d="M1279.91643,232.400001 L1279.91643,240.772001" id="Stroke-2" transform="translate(1280.421982, 236.586001) scale(-1, 1) translate(-1280.421982, -236.586001) "/>
        <path d="M1197.99998,241.244446 L1206.37198,241.244446" id="Stroke-1" transform="translate(1202.185979, 241.750001) scale(-1, 1) translate(-1202.185979, -241.750001) "/>
        <path d="M1201.31642,237.200001 L1201.31642,245.572002" id="Stroke-2" transform="translate(1201.821979, 241.386001) scale(-1, 1) translate(-1201.821979, -241.386001) "/>
        <path d="M1113.99998,270.044447 L1122.37198,270.044447" id="Stroke-1" transform="translate(1118.185976, 270.550003) scale(-1, 1) translate(-1118.185976, -270.550003) "/>
        <path d="M1117.31642,266.000002 L1117.31642,274.372003" id="Stroke-2" transform="translate(1117.821976, 270.186003) scale(-1, 1) translate(-1117.821976, -270.186003) "/>
        <path d="M960.99997,219.044445 L969.37197,219.044445" id="Stroke-1" transform="translate(965.185970, 219.550001) scale(-1, 1) translate(-965.185970, -219.550001) "/>
        <path d="M964.316414,215 L964.316414,223.372001" id="Stroke-2" transform="translate(964.821970, 219.186001) scale(-1, 1) translate(-964.821970, -219.186001) "/>
        <path d="M1133.19998,222.644445 L1141.57198,222.644445" id="Stroke-1" transform="translate(1137.385977, 223.150001) scale(-1, 1) translate(-1137.385977, -223.150001) "/>
        <path d="M1136.51642,218.600001 L1136.51642,226.972001" id="Stroke-2" transform="translate(1137.021977, 222.786001) scale(-1, 1) translate(-1137.021977, -222.786001) "/>
        <path d="M1023.99997,282.644447 L1032.37197,282.644447" id="Stroke-1" transform="translate(1028.185972, 283.150003) scale(-1, 1) translate(-1028.185972, -283.150003) "/>
        <path d="M1027.31642,278.600003 L1027.31642,286.972003" id="Stroke-2" transform="translate(1027.821972, 282.786003) scale(-1, 1) translate(-1027.821972, -282.786003) "/>
        <path d="M1256.79998,278.444447 L1265.17198,278.444447" id="Stroke-1" transform="translate(1260.985982, 278.950003) scale(-1, 1) translate(-1260.985982, -278.950003) "/>
        <path d="M1260.11643,274.400003 L1260.11643,282.772003" id="Stroke-2" transform="translate(1260.621982, 278.586003) scale(-1, 1) translate(-1260.621982, -278.586003) "/>
        <path d="M465.39995,245.444446 L473.77195,245.444446" id="Stroke-1" transform="translate(469.585950, 245.950002) scale(-1, 1) translate(-469.585950, -245.950002) "/>
        <path d="M468.716394,241.400001 L468.716394,249.772002" id="Stroke-2" transform="translate(469.221950, 245.586002) scale(-1, 1) translate(-469.221950, -245.586002) "/>
        <path d="M386.799947,250.244446 L395.171947,250.244446" id="Stroke-1" transform="translate(390.985947, 250.750002) scale(-1, 1) translate(-390.985947, -250.750002) "/>
        <path d="M390.116391,246.200002 L390.116391,254.572002" id="Stroke-2" transform="translate(390.621947, 250.386002) scale(-1, 1) translate(-390.621947, -250.386002) "/>
        <path d="M302.799943,279.044447 L311.171944,279.044447" id="Stroke-1" transform="translate(306.985944, 279.550003) scale(-1, 1) translate(-306.985944, -279.550003) "/>
        <path d="M306.116388,275.000003 L306.116388,283.372003" id="Stroke-2" transform="translate(306.621944, 279.186003) scale(-1, 1) translate(-306.621944, -279.186003) "/>
        <path d="M149.799937,228.044445 L158.171938,228.044445" id="Stroke-1" transform="translate(153.985938, 228.550001) scale(-1, 1) translate(-153.985938, -228.550001) "/>
        <path d="M153.116382,224.000001 L153.116382,232.372001" id="Stroke-2" transform="translate(153.621938, 228.186001) scale(-1, 1) translate(-153.621938, -228.186001) "/>
        <path d="M321.999944,231.644445 L330.371945,231.644445" id="Stroke-1" transform="translate(326.185944, 232.150001) scale(-1, 1) translate(-326.185944, -232.150001) "/>
        <path d="M325.316389,227.600001 L325.316389,235.972001" id="Stroke-2" transform="translate(325.821944, 231.786001) scale(-1, 1) translate(-325.821944, -231.786001) "/>
        <path d="M212.79994,291.644448 L221.17194,291.644448" id="Stroke-1" transform="translate(216.985940, 292.150003) scale(-1, 1) translate(-216.985940, -292.150003) "/>
        <path d="M216.116384,287.600003 L216.116384,295.972004" id="Stroke-2" transform="translate(216.621940, 291.786003) scale(-1, 1) translate(-216.621940, -291.786003) "/>
        <path d="M445.599949,287.444448 L453.971949,287.444448" id="Stroke-1" transform="translate(449.785949, 287.950003) scale(-1, 1) translate(-449.785949, -287.950003) "/>
        <path d="M448.916394,283.400003 L448.916394,291.772003" id="Stroke-2" transform="translate(449.421949, 287.586003) scale(-1, 1) translate(-449.421949, -287.586003) "/>
        <path d="M78.6000031,266.444445 L86.9720035,266.444445" id="Stroke-1" transform="translate(82.786003, 266.950001) scale(-1, 1) translate(-82.786003, -266.950001) "/>
        <path d="M81.9164477,262.400001 L81.9164477,270.772001" id="Stroke-2" transform="translate(82.422003, 266.586001) scale(-1, 1) translate(-82.422003, -266.586001) "/>
        <path d="M2.84217094e-14,271.244445 L8.37200033,271.244445" id="Stroke-1" transform="translate(4.186000, 271.750001) scale(-1, 1) translate(-4.186000, -271.750001) "/>
        <path d="M3.31644458,267.200001 L3.31644458,275.572001" id="Stroke-2" transform="translate(3.822000, 271.386001) scale(-1, 1) translate(-3.822000, -271.386001) "/>
        <path d="M225.297329,422.195722 L233.669329,422.195722" id="Stroke-1" transform="translate(229.483329, 422.701277) scale(-1, 1) translate(-229.483329, -422.701277) "/>
        <path d="M228.613773,418.151277 L228.613773,426.523277" id="Stroke-2" transform="translate(229.119329, 422.337277) scale(-1, 1) translate(-229.119329, -422.337277) "/>
        <path d="M72.2973226,371.19572 L80.6693229,371.19572" id="Stroke-1" transform="translate(76.483323, 371.701275) scale(-1, 1) translate(-76.483323, -371.701275) "/>
        <path d="M75.6137672,367.151275 L75.6137672,375.523275" id="Stroke-2" transform="translate(76.119323, 371.337275) scale(-1, 1) translate(-76.119323, -371.337275) "/>
        <path d="M135.297325,434.795722 L143.669325,434.795722" id="Stroke-1" transform="translate(139.483325, 435.301278) scale(-1, 1) translate(-139.483325, -435.301278) "/>
        <path d="M138.61377,430.751278 L138.61377,439.123278" id="Stroke-2" transform="translate(139.119325, 434.937278) scale(-1, 1) translate(-139.119325, -434.937278) "/>
        <path d="M58.8000023,308.444447 L67.1720027,308.444447" id="Stroke-1" transform="translate(62.986003, 308.950003) scale(-1, 1) translate(-62.986003, -308.950003) "/>
        <path d="M62.1164469,304.400002 L62.1164469,312.772003" id="Stroke-2" transform="translate(62.622002, 308.586003) scale(-1, 1) translate(-62.622002, -308.586003) "/>
        <path d="M1516.57199,334.84445 L1524.94399,334.84445" id="Stroke-1"/>
        <path d="M1520.61644,330.800005 L1520.61644,339.172005" id="Stroke-2"/>
        <path d="M1595.17199,339.64445 L1603.544,339.64445" id="Stroke-1"/>
        <path d="M1599.21644,335.600005 L1599.21644,343.972005" id="Stroke-2"/>
        <path d="M1679.172,368.444451 L1687.544,368.444451" id="Stroke-1"/>
        <path d="M1683.21644,364.400006 L1683.21644,372.772007" id="Stroke-2"/>
        <path d="M1832.172,317.444449 L1840.544,317.444449" id="Stroke-1"/>
        <path d="M1836.21645,313.400004 L1836.21645,321.772005" id="Stroke-2"/>
        <path d="M1659.972,321.044449 L1668.344,321.044449" id="Stroke-1"/>
        <path d="M1664.01644,317.000004 L1664.01644,325.372005" id="Stroke-2"/>
        <path d="M1769.172,381.044451 L1777.544,381.044451" id="Stroke-1"/>
        <path d="M1773.21645,377.000007 L1773.21645,385.372007" id="Stroke-2"/>
        <path d="M1536.37199,376.844451 L1544.74399,376.844451" id="Stroke-1"/>
        <path d="M1540.41644,372.800007 L1540.41644,381.172007" id="Stroke-2"/>
        <path d="M705.371959,343.84445 L713.74396,343.84445" id="Stroke-1"/>
        <path d="M709.416404,339.800005 L709.416404,348.172006" id="Stroke-2"/>
        <path d="M783.971963,348.64445 L792.343963,348.64445" id="Stroke-1"/>
        <path d="M788.016407,344.600006 L788.016407,352.972006" id="Stroke-2"/>
        <path d="M867.971966,377.444451 L876.343966,377.444451" id="Stroke-1"/>
        <path d="M872.016411,373.400007 L872.016411,381.772007" id="Stroke-2"/>
        <path d="M1020.97197,326.444449 L1029.34397,326.444449" id="Stroke-1"/>
        <path d="M1025.01642,322.400005 L1025.01642,330.772005" id="Stroke-2"/>
        <path d="M848.771965,330.044449 L857.143965,330.044449" id="Stroke-1"/>
        <path d="M852.81641,326.000005 L852.81641,334.372005" id="Stroke-2"/>
        <path d="M957.971969,390.044452 L966.34397,390.044452" id="Stroke-1"/>
        <path d="M962.016414,386.000007 L962.016414,394.372007" id="Stroke-2"/>
        <path d="M725.17196,385.844452 L733.543961,385.844452" id="Stroke-1"/>
        <path d="M729.216405,381.800007 L729.216405,390.172007" id="Stroke-2"/>
        <path d="M1382.19999,355.74445 L1390.57199,355.74445" id="Stroke-1" transform="translate(1386.385987, 356.250006) scale(-1, -1) translate(-1386.385987, -356.250006) "/>
        <path d="M1385.51643,352.428006 L1385.51643,360.800006" id="Stroke-2" transform="translate(1386.021986, 356.614006) scale(-1, -1) translate(-1386.021986, -356.614006) "/>
        <path d="M1303.59998,350.94445 L1311.97198,350.94445" id="Stroke-1" transform="translate(1307.785983, 351.450006) scale(-1, -1) translate(-1307.785983, -351.450006) "/>
        <path d="M1306.91643,347.628006 L1306.91643,356.000006" id="Stroke-2" transform="translate(1307.421983, 351.814006) scale(-1, -1) translate(-1307.421983, -351.814006) "/>
        <path d="M1219.59998,322.144449 L1227.97198,322.144449" id="Stroke-1" transform="translate(1223.785980, 322.650005) scale(-1, -1) translate(-1223.785980, -322.650005) "/>
        <path d="M1222.91642,318.828004 L1222.91642,327.200005" id="Stroke-2" transform="translate(1223.421980, 323.014005) scale(-1, -1) translate(-1223.421980, -323.014005) "/>
        <path d="M1066.59997,373.144451 L1074.97197,373.144451" id="Stroke-1" transform="translate(1070.785974, 373.650007) scale(-1, -1) translate(-1070.785974, -373.650007) "/>
        <path d="M1069.91642,369.828007 L1069.91642,378.200007" id="Stroke-2" transform="translate(1070.421974, 374.014007) scale(-1, -1) translate(-1070.421974, -374.014007) "/>
        <path d="M1238.79998,369.544451 L1247.17198,369.544451" id="Stroke-1" transform="translate(1242.985981, 370.050007) scale(-1, -1) translate(-1242.985981, -370.050007) "/>
        <path d="M1242.11643,366.228006 L1242.11643,374.600007" id="Stroke-2" transform="translate(1242.621981, 370.414007) scale(-1, -1) translate(-1242.621981, -370.414007) "/>
        <path d="M1129.59998,309.544449 L1137.97198,309.544449" id="Stroke-1" transform="translate(1133.785976, 310.050004) scale(-1, -1) translate(-1133.785976, -310.050004) "/>
        <path d="M1132.91642,306.228004 L1132.91642,314.600004" id="Stroke-2" transform="translate(1133.421976, 310.414004) scale(-1, -1) translate(-1133.421976, -310.414004) "/>
        <path d="M1362.39999,313.744449 L1370.77199,313.744449" id="Stroke-1" transform="translate(1366.585986, 314.250004) scale(-1, -1) translate(-1366.585986, -314.250004) "/>
        <path d="M1365.71643,310.428004 L1365.71643,318.800004" id="Stroke-2" transform="translate(1366.221986, 314.614004) scale(-1, -1) translate(-1366.221986, -314.614004) "/>
        <path d="M570.999954,364.744451 L579.371954,364.744451" id="Stroke-1" transform="translate(575.185954, 365.250006) scale(-1, -1) translate(-575.185954, -365.250006) "/>
        <path d="M574.316399,361.428006 L574.316399,369.800007" id="Stroke-2" transform="translate(574.821954, 365.614006) scale(-1, -1) translate(-574.821954, -365.614006) "/>
        <path d="M492.399951,359.944451 L500.771951,359.944451" id="Stroke-1" transform="translate(496.585951, 360.450006) scale(-1, -1) translate(-496.585951, -360.450006) "/>
        <path d="M495.716396,356.628006 L495.716396,365.000006" id="Stroke-2" transform="translate(496.221951, 360.814006) scale(-1, -1) translate(-496.221951, -360.814006) "/>
        <path d="M408.399948,331.144449 L416.771948,331.144449" id="Stroke-1" transform="translate(412.585948, 331.650005) scale(-1, -1) translate(-412.585948, -331.650005) "/>
        <path d="M411.716392,327.828005 L411.716392,336.200005" id="Stroke-2" transform="translate(412.221948, 332.014005) scale(-1, -1) translate(-412.221948, -332.014005) "/>
        <path d="M255.399942,382.144451 L263.771942,382.144451" id="Stroke-1" transform="translate(259.585942, 382.650007) scale(-1, -1) translate(-259.585942, -382.650007) "/>
        <path d="M258.716386,378.828007 L258.716386,387.200007" id="Stroke-2" transform="translate(259.221942, 383.014007) scale(-1, -1) translate(-259.221942, -383.014007) "/>
        <path d="M427.599948,378.544451 L435.971949,378.544451" id="Stroke-1" transform="translate(431.785949, 379.050007) scale(-1, -1) translate(-431.785949, -379.050007) "/>
        <path d="M430.916393,375.228007 L430.916393,383.600007" id="Stroke-2" transform="translate(431.421949, 379.414007) scale(-1, -1) translate(-431.421949, -379.414007) "/>
        <path d="M318.399944,318.544449 L326.771944,318.544449" id="Stroke-1" transform="translate(322.585944, 319.050004) scale(-1, -1) translate(-322.585944, -319.050004) "/>
        <path d="M321.716389,315.228004 L321.716389,323.600005" id="Stroke-2" transform="translate(322.221944, 319.414005) scale(-1, -1) translate(-322.221944, -319.414005) "/>
        <path d="M551.199953,322.744449 L559.571954,322.744449" id="Stroke-1" transform="translate(555.385953, 323.250005) scale(-1, -1) translate(-555.385953, -323.250005) "/>
        <path d="M554.516398,319.428005 L554.516398,327.800005" id="Stroke-2" transform="translate(555.021953, 323.614005) scale(-1, -1) translate(-555.021953, -323.614005) "/>
        <path d="M1754.57201,173.444445 L1762.94401,173.444445" id="Stroke-1"/>
        <path d="M1758.61645,169.400001 L1758.61645,177.772001" id="Stroke-2"/>
        <path d="M1833.17201,178.244445 L1841.54401,178.244445" id="Stroke-1"/>
        <path d="M1837.21645,174.200001 L1837.21645,182.572001" id="Stroke-2"/>
        <path d="M1749.97201,283.195722 L1758.34401,283.195722" id="Stroke-1"/>
        <path d="M1754.01645,279.151277 L1754.01645,287.523277" id="Stroke-2"/>
        <path d="M1902.97201,232.19572 L1911.34401,232.19572" id="Stroke-1"/>
        <path d="M1907.01646,228.151275 L1907.01646,236.523275" id="Stroke-2"/>
        <path d="M1730.772,235.79572 L1739.14401,235.79572" id="Stroke-1"/>
        <path d="M1734.81645,231.751275 L1734.81645,240.123275" id="Stroke-2"/>
      </g>
    </g>
  </g>
  <title>Artboard</title>
  <desc>Created with Sketch.</desc>
  <g id="g-1" stroke="none" stroke-width="1" fill="none" fill-rule="evenodd" stroke-linecap="round" stroke-linejoin="round" transform="matrix(1, 0, 0, 1, 12.49992, -19.387268)">
    <g id="g-2" transform="translate(20.000000, 13.000000)" stroke="#FEF0EC" stroke-width="4.80000019">
      <g id="Lines" transform="translate(0.000000, 47.800002)">
        <path d="M577.800025,3.00000012 L558.945559,19.3500008" id="Line-Copy-2"/>
        <path d="M397.200018,42.0000017 L401.145553,55.3500022" id="Line-Copy-5"/>
        <path d="M486.000021,4.20000017 L495.945557,22.3500009" id="Line-Copy-3"/>
        <path d="M580.800025,30.6000012 L587.74556,40.9500016" id="Line-Copy-7"/>
        <path d="M502.200022,52.2000021 L498.345557,61.9500025" id="Line-Copy-8"/>
        <path d="M315.600014,-1.77635684e-15 L325.54555,18.1500007" id="Line-Copy-4"/>
        <path d="M253.200012,22.8000009 L267.945548,28.3500011" id="Line-Copy-6"/>
        <path d="M1389.00006,12.0000005 L1370.14559,28.3500011" id="Line-Copy-2"/>
        <path d="M1208.40005,51.000002 L1212.34559,64.3500026" id="Line-Copy-5"/>
        <path d="M1297.20005,13.2000005 L1307.14559,31.3500012" id="Line-Copy-3"/>
        <path d="M1392.00006,39.6000016 L1398.94559,49.950002" id="Line-Copy-7"/>
        <path d="M1313.40005,61.2000024 L1309.54559,70.9500028" id="Line-Copy-8"/>
        <path d="M1126.80005,9.00000036 L1136.74558,27.1500011" id="Line-Copy-4"/>
        <path d="M1064.40004,31.8000013 L1079.14558,37.3500015" id="Line-Copy-6"/>
        <path d="M963.00004,12.0000005 L944.145575,28.3500011" id="Line-Copy-2"/>
        <path d="M782.400033,51.000002 L786.345568,64.3500026" id="Line-Copy-5"/>
        <path d="M871.200036,13.2000005 L881.145572,31.3500012" id="Line-Copy-3"/>
        <path d="M966.00004,39.6000016 L972.945576,49.950002" id="Line-Copy-7"/>
        <path d="M887.400037,61.2000024 L883.545572,70.9500028" id="Line-Copy-8"/>
        <path d="M700.80003,9.00000036 L710.745565,27.1500011" id="Line-Copy-4"/>
        <path d="M638.400027,31.8000013 L653.145563,37.3500015" id="Line-Copy-6"/>
        <path d="M1774.20007,21.0000008 L1755.34561,37.3500015" id="Line-Copy-2"/>
        <path d="M1593.60007,60.0000024 L1597.5456,73.3500029" id="Line-Copy-5"/>
        <path d="M1682.40007,22.2000009 L1692.3456,40.3500016" id="Line-Copy-3"/>
        <path d="M1777.20007,48.6000019 L1784.14561,58.9500023" id="Line-Copy-7"/>
        <path d="M1698.60007,70.2000028 L1694.7456,79.9500032" id="Line-Copy-8"/>
        <path d="M1512.00006,18.0000007 L1521.9456,36.1500014" id="Line-Copy-4"/>
        <path d="M1449.60006,40.8000016 L1464.3456,46.3500018" id="Line-Copy-6"/>
        <path d="M169.800009,110.400004 L150.945543,126.750005" id="Line-Copy-10" transform="translate(160.200008, 118.800005) scale(-1, 1) translate(-160.200008, -118.800005) "/>
        <path d="M327.000015,149.400006 L330.94555,162.750006" id="Line-Copy-11" transform="translate(329.100015, 156.300006) scale(-1, 1) translate(-329.100015, -156.300006) "/>
        <path d="M232.200011,111.600004 L242.145547,129.750005" id="Line-Copy-12" transform="translate(237.300011, 120.900005) scale(-1, 1) translate(-237.300011, -120.900005) "/>
        <path d="M192.672774,31.7749981 L202.618309,49.9249988" id="Line-Copy-18" transform="translate(197.772774, 41.074998) scale(-1, 1) translate(-197.772774, -41.074998) "/>
        <path d="M140.400007,138.000005 L147.345543,148.350006" id="Line-Copy-13" transform="translate(144.000008, 143.400006) scale(-1, 1) translate(-144.000008, -143.400006) "/>
        <path d="M230.400011,159.600006 L226.545546,169.350007" id="Line-Copy-14" transform="translate(228.300011, 164.700007) scale(-1, 1) translate(-228.300011, -164.700007) "/>
        <path d="M495.600021,161.400006 L491.745557,171.150007" id="Line-Copy-15" transform="translate(493.500021, 166.500007) scale(-1, 1) translate(-493.500021, -166.500007) "/>
        <path d="M402.600018,107.400004 L412.545553,125.550005" id="Line-Copy-16" transform="translate(407.700018, 116.700005) scale(-1, 1) translate(-407.700018, -116.700005) "/>
        <path d="M460.20002,130.200005 L474.945556,135.750005" id="Line-Copy-17" transform="translate(467.700020, 133.200005) scale(-1, 1) translate(-467.700020, -133.200005) "/>
        <path d="M981.000041,119.400005 L962.145575,135.750005" id="Line-Copy-10" transform="translate(971.400040, 127.800005) scale(-1, 1) translate(-971.400040, -127.800005) "/>
        <path d="M1138.20005,158.400006 L1142.14558,171.750007" id="Line-Copy-11" transform="translate(1140.300047, 165.300007) scale(-1, 1) translate(-1140.300047, -165.300007) "/>
        <path d="M1043.40004,120.600005 L1053.34558,138.750006" id="Line-Copy-12" transform="translate(1048.500043, 129.900005) scale(-1, 1) translate(-1048.500043, -129.900005) "/>
        <path d="M951.60004,147.000006 L958.545575,157.350006" id="Line-Copy-13" transform="translate(955.200040, 152.400006) scale(-1, 1) translate(-955.200040, -152.400006) "/>
        <path d="M1041.60004,168.600007 L1037.74558,178.350007" id="Line-Copy-14" transform="translate(1039.500043, 173.700007) scale(-1, 1) translate(-1039.500043, -173.700007) "/>
        <path d="M1306.80005,170.400007 L1302.94559,180.150007" id="Line-Copy-15" transform="translate(1304.700054, 175.500007) scale(-1, 1) translate(-1304.700054, -175.500007) "/>
        <path d="M1213.80005,116.400005 L1223.74559,134.550005" id="Line-Copy-16" transform="translate(1218.900050, 125.700005) scale(-1, 1) translate(-1218.900050, -125.700005) "/>
        <path d="M1271.40005,139.200006 L1286.14559,144.750006" id="Line-Copy-17" transform="translate(1278.900053, 142.200006) scale(-1, 1) translate(-1278.900053, -142.200006) "/>
        <path d="M857.400036,145.200006 L838.54557,161.550006" id="Line-Copy-10" transform="translate(847.800035, 153.600006) scale(1, -1) translate(-847.800035, -153.600006) "/>
        <path d="M676.800029,109.200004 L680.745564,122.550005" id="Line-Copy-11" transform="translate(678.900029, 116.100005) scale(1, -1) translate(-678.900029, -116.100005) "/>
        <path d="M765.600032,142.200006 L775.545568,160.350006" id="Line-Copy-12" transform="translate(770.700032, 151.500006) scale(1, -1) translate(-770.700032, -151.500006) "/>
        <path d="M860.400036,123.600005 L867.345571,133.950005" id="Line-Copy-13" transform="translate(864.000036, 129.000005) scale(1, -1) translate(-864.000036, -129.000005) "/>
        <path d="M781.800033,102.600004 L777.945568,112.350004" id="Line-Copy-14" transform="translate(779.700033, 107.700004) scale(1, -1) translate(-779.700033, -107.700004) "/>
        <path d="M516.600022,100.800004 L512.745557,110.550004" id="Line-Copy-15" transform="translate(514.500022, 105.900004) scale(1, -1) translate(-514.500022, -105.900004) "/>
        <path d="M595.200025,146.400006 L605.145561,164.550007" id="Line-Copy-16" transform="translate(600.300026, 155.700006) scale(1, -1) translate(-600.300026, -155.700006) "/>
        <path d="M532.800023,136.200005 L547.545559,141.750006" id="Line-Copy-17" transform="translate(540.300023, 139.200006) scale(1, -1) translate(-540.300023, -139.200006) "/>
        <path d="M1668.60007,154.200006 L1649.7456,170.550007" id="Line-Copy-10" transform="translate(1659.000068, 162.600006) scale(1, -1) translate(-1659.000068, -162.600006) "/>
        <path d="M1488.00006,118.200005 L1491.9456,131.550005" id="Line-Copy-11" transform="translate(1490.100061, 125.100005) scale(1, -1) translate(-1490.100061, -125.100005) "/>
        <path d="M1576.80006,151.200006 L1586.7456,169.350007" id="Line-Copy-12" transform="translate(1581.900065, 160.500006) scale(1, -1) translate(-1581.900065, -160.500006) "/>
        <path d="M1671.60007,132.600005 L1678.5456,142.950006" id="Line-Copy-13" transform="translate(1675.200068, 138.000005) scale(1, -1) translate(-1675.200068, -138.000005) "/>
        <path d="M1593.00007,111.600004 L1589.1456,121.350005" id="Line-Copy-14" transform="translate(1590.900065, 116.700005) scale(1, -1) translate(-1590.900065, -116.700005) "/>
        <path d="M1327.80005,109.800004 L1323.94559,119.550005" id="Line-Copy-15" transform="translate(1325.700054, 114.900005) scale(1, -1) translate(-1325.700054, -114.900005) "/>
        <path d="M1406.40006,155.400006 L1416.34559,173.550007" id="Line-Copy-16" transform="translate(1411.500058, 164.700007) scale(1, -1) translate(-1411.500058, -164.700007) "/>
        <path d="M1344.00006,145.200006 L1358.74559,150.750006" id="Line-Copy-17" transform="translate(1351.500055, 148.200006) scale(1, -1) translate(-1351.500055, -148.200006) "/>
        <path d="M1425.99999,209 L1407.14552,225.350001" id="Line-Copy-2" transform="translate(1416.399988, 217.400000) scale(-1, 1) translate(-1416.399988, -217.400000) "/>
        <path d="M1583.19999,248.000002 L1587.14553,261.350002" id="Line-Copy-5" transform="translate(1585.299994, 254.900002) scale(-1, 1) translate(-1585.299994, -254.900002) "/>
        <path d="M1488.39999,210.2 L1498.34553,228.350001" id="Line-Copy-3" transform="translate(1493.499991, 219.500001) scale(-1, 1) translate(-1493.499991, -219.500001) "/>
        <path d="M1396.59999,236.600001 L1403.54552,246.950002" id="Line-Copy-7" transform="translate(1400.199987, 242.000001) scale(-1, 1) translate(-1400.199987, -242.000001) "/>
        <path d="M1486.59999,258.200002 L1482.74553,267.950002" id="Line-Copy-8" transform="translate(1484.499990, 263.300002) scale(-1, 1) translate(-1484.499990, -263.300002) "/>
        <path d="M1658.8,206 L1668.74553,224.150001" id="Line-Copy-4" transform="translate(1663.899998, 215.300000) scale(-1, 1) translate(-1663.899998, -215.300000) "/>
        <path d="M1716.4,228.800001 L1731.14554,234.350001" id="Line-Copy-6" transform="translate(1723.900000, 231.800001) scale(-1, 1) translate(-1723.900000, -231.800001) "/>
        <path d="M614.799956,218 L595.94549,234.350001" id="Line-Copy-2" transform="translate(605.199955, 226.400001) scale(-1, 1) translate(-605.199955, -226.400001) "/>
        <path d="M771.999962,257.000002 L775.945497,270.350003" id="Line-Copy-5" transform="translate(774.099962, 263.900002) scale(-1, 1) translate(-774.099962, -263.900002) "/>
        <path d="M677.199958,219.200001 L687.145494,237.350001" id="Line-Copy-3" transform="translate(682.299959, 228.500001) scale(-1, 1) translate(-682.299959, -228.500001) "/>
        <path d="M585.399955,245.600002 L592.34549,255.950002" id="Line-Copy-7" transform="translate(588.999955, 251.000002) scale(-1, 1) translate(-588.999955, -251.000002) "/>
        <path d="M675.399958,267.200002 L671.545493,276.950003" id="Line-Copy-8" transform="translate(673.299958, 272.300003) scale(-1, 1) translate(-673.299958, -272.300003) "/>
        <path d="M847.599965,215 L857.545501,233.150001" id="Line-Copy-4" transform="translate(852.699965, 224.300001) scale(-1, 1) translate(-852.699965, -224.300001) "/>
        <path d="M905.199967,237.800001 L919.945503,243.350001" id="Line-Copy-6" transform="translate(912.699968, 240.800001) scale(-1, 1) translate(-912.699968, -240.800001) "/>
        <path d="M1040.79997,218 L1021.94551,234.350001" id="Line-Copy-2" transform="translate(1031.199972, 226.400001) scale(-1, 1) translate(-1031.199972, -226.400001) "/>
        <path d="M1197.99998,257.000002 L1201.94551,270.350003" id="Line-Copy-5" transform="translate(1200.099979, 263.900002) scale(-1, 1) translate(-1200.099979, -263.900002) "/>
        <path d="M1103.19998,219.200001 L1113.14551,237.350001" id="Line-Copy-3" transform="translate(1108.299975, 228.500001) scale(-1, 1) translate(-1108.299975, -228.500001) "/>
        <path d="M1011.39997,245.600002 L1018.34551,255.950002" id="Line-Copy-7" transform="translate(1014.999972, 251.000002) scale(-1, 1) translate(-1014.999972, -251.000002) "/>
        <path d="M1101.39998,267.200002 L1097.54551,276.950003" id="Line-Copy-8" transform="translate(1099.299975, 272.300003) scale(-1, 1) translate(-1099.299975, -272.300003) "/>
        <path d="M1273.59998,215 L1283.54552,233.150001" id="Line-Copy-4" transform="translate(1278.699982, 224.300001) scale(-1, 1) translate(-1278.699982, -224.300001) "/>
        <path d="M1331.19998,237.800001 L1345.94552,243.350001" id="Line-Copy-6" transform="translate(1338.699985, 240.800001) scale(-1, 1) translate(-1338.699985, -240.800001) "/>
        <path d="M229.599941,227.000001 L210.745475,243.350001" id="Line-Copy-2" transform="translate(219.999940, 235.400001) scale(-1, 1) translate(-219.999940, -235.400001) "/>
        <path d="M386.799947,266.000002 L390.745482,279.350003" id="Line-Copy-5" transform="translate(388.899947, 272.900003) scale(-1, 1) translate(-388.899947, -272.900003) "/>
        <path d="M291.999943,228.200001 L301.945479,246.350002" id="Line-Copy-3" transform="translate(297.099943, 237.500001) scale(-1, 1) translate(-297.099943, -237.500001) "/>
        <path d="M200.199939,254.600002 L207.145475,264.950002" id="Line-Copy-7" transform="translate(203.799940, 260.000002) scale(-1, 1) translate(-203.799940, -260.000002) "/>
        <path d="M290.199943,276.200003 L286.345478,285.950003" id="Line-Copy-8" transform="translate(288.099943, 281.300003) scale(-1, 1) translate(-288.099943, -281.300003) "/>
        <path d="M462.39995,224.000001 L472.345485,242.150001" id="Line-Copy-4" transform="translate(467.499950, 233.300001) scale(-1, 1) translate(-467.499950, -233.300001) "/>
        <path d="M519.999952,246.800002 L534.745488,252.350002" id="Line-Copy-6" transform="translate(527.499952, 249.800002) scale(-1, 1) translate(-527.499952, -249.800002) "/>
        <path d="M152.097326,370.151275 L133.24286,386.501276" id="Line-Copy-2" transform="translate(142.497325, 378.551275) scale(-1, 1) translate(-142.497325, -378.551275) "/>
        <path d="M0,287.000002 L3.94553538,300.350002" id="Line-Copy-5" transform="translate(2.100000, 293.900002) scale(-1, 1) translate(-2.100000, -293.900002) "/>
        <path d="M214.497328,371.351275 L224.442864,389.501276" id="Line-Copy-3" transform="translate(219.597328, 380.651276) scale(-1, 1) translate(-219.597328, -380.651276) "/>
        <path d="M212.697328,419.351277 L208.842863,429.101277" id="Line-Copy-8" transform="translate(210.597328, 424.451277) scale(-1, 1) translate(-210.597328, -424.451277) "/>
        <path d="M75.600003,245 L85.5455386,263.150001" id="Line-Copy-4" transform="translate(80.700003, 254.300000) scale(-1, 1) translate(-80.700003, -254.300000) "/>
        <path d="M133.200005,267.800001 L147.945541,273.350001" id="Line-Copy-6" transform="translate(140.700006, 270.800001) scale(-1, 1) translate(-140.700006, -270.800001) "/>
        <path d="M1834,316.400004 L1815.14554,332.750005" id="Line-Copy-10"/>
        <path d="M1653.4,355.400006 L1657.34553,368.750006" id="Line-Copy-11"/>
        <path d="M1742.2,317.600004 L1752.14554,335.750005" id="Line-Copy-12"/>
        <path d="M1837,344.000005 L1843.94554,354.350006" id="Line-Copy-13"/>
        <path d="M1758.4,365.600006 L1754.54554,375.350007" id="Line-Copy-14"/>
        <path d="M1493.19999,367.400006 L1489.34553,377.150007" id="Line-Copy-15"/>
        <path d="M1571.79999,313.400004 L1581.74553,331.550005" id="Line-Copy-16"/>
        <path d="M1509.39999,336.200005 L1524.14553,341.750005" id="Line-Copy-17"/>
        <path d="M1022.79997,325.400005 L1003.94551,341.750005" id="Line-Copy-10"/>
        <path d="M842.199965,364.400006 L846.1455,377.750007" id="Line-Copy-11"/>
        <path d="M930.999968,326.600005 L940.945504,344.750006" id="Line-Copy-12"/>
        <path d="M1025.79997,353.000006 L1032.74551,363.350006" id="Line-Copy-13"/>
        <path d="M947.199969,374.600007 L943.345504,384.350007" id="Line-Copy-14"/>
        <path d="M681.999959,376.400007 L678.145494,386.150007" id="Line-Copy-15"/>
        <path d="M760.599962,322.400005 L770.545497,340.550005" id="Line-Copy-16"/>
        <path d="M698.199959,345.200006 L712.945495,350.750006" id="Line-Copy-17"/>
        <path d="M1146.39998,351.200006 L1127.54551,367.550006" id="Line-Copy-10" transform="translate(1136.799977, 359.600006) scale(-1, -1) translate(-1136.799977, -359.600006) "/>
        <path d="M1303.59998,315.200004 L1307.54552,328.550005" id="Line-Copy-11" transform="translate(1305.699983, 322.100005) scale(-1, -1) translate(-1305.699983, -322.100005) "/>
        <path d="M1208.79998,348.200006 L1218.74552,366.350006" id="Line-Copy-12" transform="translate(1213.899980, 357.500006) scale(-1, -1) translate(-1213.899980, -357.500006) "/>
        <path d="M1116.99998,329.600005 L1123.94551,339.950005" id="Line-Copy-13" transform="translate(1120.599976, 335.000005) scale(-1, -1) translate(-1120.599976, -335.000005) "/>
        <path d="M1206.99998,308.600004 L1203.14551,318.350004" id="Line-Copy-14" transform="translate(1204.899979, 313.700004) scale(-1, -1) translate(-1204.899979, -313.700004) "/>
        <path d="M1472.19999,306.800004 L1468.34552,316.550004" id="Line-Copy-15" transform="translate(1470.099990, 311.900004) scale(-1, -1) translate(-1470.099990, -311.900004) "/>
        <path d="M1379.19999,352.400006 L1389.14552,370.550007" id="Line-Copy-16" transform="translate(1384.299986, 361.700006) scale(-1, -1) translate(-1384.299986, -361.700006) "/>
        <path d="M1436.79999,342.200005 L1451.54552,347.750006" id="Line-Copy-17" transform="translate(1444.299989, 345.200006) scale(-1, -1) translate(-1444.299989, -345.200006) "/>
        <path d="M335.199945,360.200006 L316.345479,376.550007" id="Line-Copy-10" transform="translate(325.599944, 368.600006) scale(-1, -1) translate(-325.599944, -368.600006) "/>
        <path d="M492.399951,324.200005 L496.345486,337.550005" id="Line-Copy-11" transform="translate(494.499951, 331.100005) scale(-1, -1) translate(-494.499951, -331.100005) "/>
        <path d="M397.599947,357.200006 L407.545483,375.350007" id="Line-Copy-12" transform="translate(402.699947, 366.500006) scale(-1, -1) translate(-402.699947, -366.500006) "/>
        <path d="M305.799944,338.600005 L312.745479,348.950006" id="Line-Copy-13" transform="translate(309.399944, 344.000005) scale(-1, -1) translate(-309.399944, -344.000005) "/>
        <path d="M395.799947,317.600004 L391.945482,327.350005" id="Line-Copy-14" transform="translate(393.699947, 322.700005) scale(-1, -1) translate(-393.699947, -322.700005) "/>
        <path d="M660.999958,315.800004 L657.145493,325.550005" id="Line-Copy-15" transform="translate(658.899958, 320.900005) scale(-1, -1) translate(-658.899958, -320.900005) "/>
        <path d="M567.999954,361.400006 L577.94549,379.550007" id="Line-Copy-16" transform="translate(573.099954, 370.700007) scale(-1, -1) translate(-573.099954, -370.700007) "/>
        <path d="M625.599956,351.200006 L640.345492,356.750006" id="Line-Copy-17" transform="translate(633.099957, 354.200006) scale(-1, -1) translate(-633.099957, -354.200006) "/>
        <path d="M1891.40001,194.000002 L1895.34555,207.350002" id="Line-Copy-5"/>
        <path d="M1805.00001,216.351275 L1814.94554,234.501276" id="Line-Copy-3"/>
        <path d="M1907.80001,258.751276 L1914.74555,269.101277" id="Line-Copy-7"/>
        <path d="M1829.20001,280.351277 L1825.34554,290.101277" id="Line-Copy-8"/>
        <path d="M1809.80001,152 L1819.74554,170.150001" id="Line-Copy-4"/>
        <path d="M1747.40001,174.800001 L1762.14554,180.350001" id="Line-Copy-6"/>
      </g>
    </g>
  </g>
  <title>Artboard</title>
  <desc>Created with Sketch.</desc>
  <g id="g-3" stroke="none" stroke-width="1" fill="none" fill-rule="evenodd" stroke-linecap="round" stroke-linejoin="round" transform="matrix(1, 0, 0, 1, -7.551821, -1.836639)">
    <g id="g-4" transform="translate(20.000000, 13.000000)" fill-rule="nonzero" stroke="#F7BAAB" stroke-width="4.80000019">
      <g id="triangles" transform="translate(31.000001, 0.000000)">
        <polygon id="Path-2" transform="translate(500.000022, 61.000002) rotate(-35.000000) translate(-500.000022, -61.000002) " points="494.600021 53.2000021 494.600021 68.8000027 505.400022 61.0000024"/>
        <polygon id="Path-2-Copy" transform="translate(322.100015, 94.600004) rotate(-192.000000) translate(-322.100015, -94.600004) " points="315.800014 86.8000034 315.800014 102.400004 328.400015 94.6000037"/>
        <polygon id="Path-2-Copy-2" transform="translate(330.800015, 28.000001) rotate(-15.000000) translate(-330.800015, -28.000001) " points="324.200015 20.2000008 324.200015 35.8000014 337.400015 28.0000011"/>
        <polygon id="Path-2-Copy-5" transform="translate(453.500020, 8.800000) rotate(-95.000000) translate(-453.500020, -8.800000) " points="446.000019 1 446.000019 16.6000006 461.00002 8.80000031"/>
        <polygon id="Path-2-Copy-3" transform="translate(230.300011, 30.400001) rotate(-120.000000) translate(-230.300011, -30.400001) " points="222.800011 22.6000009 222.800011 38.2000015 237.800011 30.4000012"/>
        <polygon id="Path-2-Copy-12" transform="translate(107.300005, 102.600000) rotate(-120.000000) translate(-107.300005, -102.600000) " points="99.8000047 94.8 99.8000047 110.400001 114.800005 102.6"/>
        <polygon id="Path-2-Copy-4" transform="translate(581.000025, 121.000005) rotate(-35.000000) translate(-581.000025, -121.000005) " points="575.600025 113.200004 575.600025 128.800005 586.400025 121.000005"/>
        <polygon id="Path-2" transform="translate(1311.200054, 70.000003) rotate(-35.000000) translate(-1311.200054, -70.000003) " points="1305.80005 62.2000024 1305.80005 77.8000031 1316.60005 70.0000027"/>
        <polygon id="Path-2-Copy" transform="translate(1133.300047, 103.600004) rotate(-192.000000) translate(-1133.300047, -103.600004) " points="1127.00005 95.8000038 1127.00005 111.400004 1139.60005 103.600004"/>
        <polygon id="Path-2-Copy-2" transform="translate(1142.000047, 37.000001) rotate(-15.000000) translate(-1142.000047, -37.000001) " points="1135.40005 29.2000011 1135.40005 44.8000017 1148.60005 37.0000014"/>
        <polygon id="Path-2-Copy-5" transform="translate(1264.700052, 17.800001) rotate(-95.000000) translate(-1264.700052, -17.800001) " points="1257.20005 10.0000004 1257.20005 25.600001 1272.20005 17.8000007"/>
        <polygon id="Path-2-Copy-3" transform="translate(1041.500043, 39.400002) rotate(-120.000000) translate(-1041.500043, -39.400002) " points="1034.00004 31.6000012 1034.00004 47.2000018 1049.00004 39.4000015"/>
        <polygon id="Path-2-Copy-4" transform="translate(1392.200057, 130.000005) rotate(-35.000000) translate(-1392.200057, -130.000005) " points="1386.80006 122.200005 1386.80006 137.800005 1397.60006 130.000005"/>
        <polygon id="Path-2" transform="translate(885.200037, 70.000003) rotate(-35.000000) translate(-885.200037, -70.000003) " points="879.800037 62.2000024 879.800037 77.8000031 890.600037 70.0000027"/>
        <polygon id="Path-2-Copy" transform="translate(707.300030, 103.600004) rotate(-192.000000) translate(-707.300030, -103.600004) " points="701.00003 95.8000038 701.00003 111.400004 713.60003 103.600004"/>
        <polygon id="Path-2-Copy-2" transform="translate(716.000030, 37.000001) rotate(-15.000000) translate(-716.000030, -37.000001) " points="709.40003 29.2000011 709.40003 44.8000017 722.60003 37.0000014"/>
        <polygon id="Path-2-Copy-5" transform="translate(838.700035, 17.800001) rotate(-95.000000) translate(-838.700035, -17.800001) " points="831.200035 10.0000004 831.200035 25.600001 846.200035 17.8000007"/>
        <polygon id="Path-2-Copy-3" transform="translate(615.500026, 39.400002) rotate(-120.000000) translate(-615.500026, -39.400002) " points="608.000026 31.6000012 608.000026 47.2000018 623.000026 39.4000015"/>
        <polygon id="Path-2-Copy-4" transform="translate(966.200040, 130.000005) rotate(-35.000000) translate(-966.200040, -130.000005) " points="960.80004 122.200005 960.80004 137.800005 971.60004 130.000005"/>
        <polygon id="Path-2" transform="translate(1696.400069, 79.000003) rotate(-35.000000) translate(-1696.400069, -79.000003) " points="1691.00007 71.2000028 1691.00007 86.8000034 1701.80007 79.0000031"/>
        <polygon id="Path-2-Copy" transform="translate(1518.500062, 112.600004) rotate(-192.000000) translate(-1518.500062, -112.600004) " points="1512.20006 104.800004 1512.20006 120.400005 1524.80006 112.600004"/>
        <polygon id="Path-2-Copy-2" transform="translate(1527.200062, 46.000002) rotate(-15.000000) translate(-1527.200062, -46.000002) " points="1520.60006 38.2000015 1520.60006 53.8000021 1533.80006 46.0000018"/>
        <polygon id="Path-2-Copy-5" transform="translate(1649.900067, 26.800001) rotate(-95.000000) translate(-1649.900067, -26.800001) " points="1642.40007 19.0000007 1642.40007 34.6000013 1657.40007 26.800001"/>
        <polygon id="Path-2-Copy-3" transform="translate(1426.700058, 48.400002) rotate(-120.000000) translate(-1426.700058, -48.400002) " points="1419.20006 40.6000016 1419.20006 56.2000022 1434.20006 48.4000019"/>
        <polygon id="Path-2-Copy-4" transform="translate(1777.400072, 139.000005) rotate(-35.000000) translate(-1777.400072, -139.000005) " points="1772.00007 131.200005 1772.00007 146.800006 1782.80007 139.000005"/>
        <polygon id="Path-2-Copy-6" transform="translate(166.400008, 168.400007) scale(-1, 1) rotate(-35.000000) translate(-166.400008, -168.400007) " points="161.000008 160.600006 161.000008 176.200007 171.800009 168.400007"/>
        <polygon id="Path-2-Copy-7" transform="translate(344.300015, 202.000008) scale(-1, 1) rotate(-192.000000) translate(-344.300015, -202.000008) " points="338.000015 194.200008 338.000015 209.800008 350.600016 202.000008"/>
        <polygon id="Path-2-Copy-8" transform="translate(335.600015, 135.400005) scale(-1, 1) rotate(-15.000000) translate(-335.600015, -135.400005) " points="329.000015 127.600005 329.000015 143.200006 342.200015 135.400005"/>
        <polygon id="Path-2-Copy-9" transform="translate(212.900010, 116.200005) scale(-1, 1) rotate(-95.000000) translate(-212.900010, -116.200005) " points="205.40001 108.400004 205.40001 124.000005 220.40001 116.200005"/>
        <polygon id="Path-2-Copy-10" transform="translate(436.100019, 137.800005) scale(-1, 1) rotate(-120.000000) translate(-436.100019, -137.800005) " points="428.600019 130.000005 428.600019 145.600006 443.600019 137.800005"/>
        <polygon id="Path-2-Copy-11" transform="translate(85.400005, 228.400009) scale(-1, 1) rotate(-35.000000) translate(-85.400005, -228.400009) " points="80.0000049 220.600009 80.0000049 236.200009 90.8000053 228.400009"/>
        <polygon id="Path-2-Copy-6" transform="translate(977.600041, 177.400007) scale(-1, 1) rotate(-35.000000) translate(-977.600041, -177.400007) " points="972.20004 169.600007 972.20004 185.200007 983.000041 177.400007"/>
        <polygon id="Path-2-Copy-7" transform="translate(1155.500048, 211.000008) scale(-1, 1) rotate(-192.000000) translate(-1155.500048, -211.000008) " points="1149.20005 203.200008 1149.20005 218.800009 1161.80005 211.000008"/>
        <polygon id="Path-2-Copy-8" transform="translate(1146.800047, 144.400006) scale(-1, 1) rotate(-15.000000) translate(-1146.800047, -144.400006) " points="1140.20005 136.600005 1140.20005 152.200006 1153.40005 144.400006"/>
        <polygon id="Path-2-Copy-9" transform="translate(1024.100042, 125.200005) scale(-1, 1) rotate(-95.000000) translate(-1024.100042, -125.200005) " points="1016.60004 117.400005 1016.60004 133.000005 1031.60004 125.200005"/>
        <polygon id="Path-2-Copy-10" transform="translate(1247.300051, 146.800006) scale(-1, 1) rotate(-120.000000) translate(-1247.300051, -146.800006) " points="1239.80005 139.000005 1239.80005 154.600006 1254.80005 146.800006"/>
        <polygon id="Path-2-Copy-6" transform="translate(779.600033, 199.600008) scale(1, -1) rotate(-35.000000) translate(-779.600033, -199.600008) " points="774.200032 191.800008 774.200032 207.400008 785.000033 199.600008"/>
        <polygon id="Path-2-Copy-7" transform="translate(601.700026, 166.000007) scale(1, -1) rotate(-192.000000) translate(-601.700026, -166.000007) " points="595.400025 158.200006 595.400025 173.800007 608.000026 166.000007"/>
        <polygon id="Path-2-Copy-8" transform="translate(610.400026, 232.600009) scale(1, -1) rotate(-15.000000) translate(-610.400026, -232.600009) " points="603.800026 224.800009 603.800026 240.40001 617.000026 232.600009"/>
        <polygon id="Path-2-Copy-9" transform="translate(733.100031, 251.800010) scale(1, -1) rotate(-95.000000) translate(-733.100031, -251.800010) " points="725.600031 244.00001 725.600031 259.60001 740.600031 251.80001"/>
        <polygon id="Path-2-Copy-10" transform="translate(509.900022, 230.200009) scale(1, -1) rotate(-120.000000) translate(-509.900022, -230.200009) " points="502.400022 222.400009 502.400022 238.000009 517.400022 230.200009"/>
        <polygon id="Path-2-Copy-11" transform="translate(860.600036, 139.600006) scale(1, -1) rotate(-35.000000) translate(-860.600036, -139.600006) " points="855.200036 131.800005 855.200036 147.400006 866.000036 139.600006"/>
        <polygon id="Path-2-Copy-6" transform="translate(1590.800065, 208.600008) scale(1, -1) rotate(-35.000000) translate(-1590.800065, -208.600008) " points="1585.40006 200.800008 1585.40006 216.400009 1596.20007 208.600008"/>
        <polygon id="Path-2-Copy-7" transform="translate(1412.900058, 175.000007) scale(1, -1) rotate(-192.000000) translate(-1412.900058, -175.000007) " points="1406.60006 167.200007 1406.60006 182.800007 1419.20006 175.000007"/>
        <polygon id="Path-2-Copy-9" transform="translate(1544.300063, 260.800010) scale(1, -1) rotate(-95.000000) translate(-1544.300063, -260.800010) " points="1536.80006 253.00001 1536.80006 268.600011 1551.80006 260.80001"/>
        <polygon id="Path-2-Copy-10" transform="translate(1321.100054, 239.200009) scale(1, -1) rotate(-120.000000) translate(-1321.100054, -239.200009) " points="1313.60005 231.400009 1313.60005 247.00001 1328.60005 239.200009"/>
        <polygon id="Path-2-Copy-11" transform="translate(1671.800068, 148.600006) scale(1, -1) rotate(-35.000000) translate(-1671.800068, -148.600006) " points="1666.40007 140.800006 1666.40007 156.400006 1677.20007 148.600006"/>
        <polygon id="Path-2-Copy" transform="translate(1600.499995, 300.600004) scale(-1, 1) rotate(-192.000000) translate(-1600.499995, -300.600004) " points="1594.19999 292.800003 1594.19999 308.400004 1606.8 300.600004"/>
        <polygon id="Path-2-Copy-5" transform="translate(1469.099990, 214.800000) scale(-1, 1) rotate(-95.000000) translate(-1469.099990, -214.800000) " points="1461.59999 207 1461.59999 222.600001 1476.59999 214.8"/>
        <polygon id="Path-2-Copy-3" transform="translate(1692.299999, 236.400001) scale(-1, 1) rotate(-120.000000) translate(-1692.299999, -236.400001) " points="1684.8 228.600001 1684.8 244.200001 1699.8 236.400001"/>
        <polygon id="Path-2-Copy-4" transform="translate(1341.599985, 327.000005) scale(-1, 1) rotate(-35.000000) translate(-1341.599985, -327.000005) " points="1336.19998 319.200004 1336.19998 334.800005 1346.99998 327.000005"/>
        <polygon id="Path-2" transform="translate(611.399956, 276.000003) scale(-1, 1) rotate(-35.000000) translate(-611.399956, -276.000003) " points="605.999955 268.200002 605.999955 283.800003 616.799956 276.000003"/>
        <polygon id="Path-2-Copy" transform="translate(789.299963, 309.600004) scale(-1, 1) rotate(-192.000000) translate(-789.299963, -309.600004) " points="782.999962 301.800004 782.999962 317.400004 795.599963 309.600004"/>
        <polygon id="Path-2-Copy-2" transform="translate(780.599962, 243.000001) scale(-1, 1) rotate(-15.000000) translate(-780.599962, -243.000001) " points="773.999962 235.200001 773.999962 250.800002 787.199963 243.000001"/>
        <polygon id="Path-2-Copy-5" transform="translate(657.899957, 223.800001) scale(-1, 1) rotate(-95.000000) translate(-657.899957, -223.800001) " points="650.399957 216 650.399957 231.600001 665.399958 223.800001"/>
        <polygon id="Path-2-Copy-3" transform="translate(881.099966, 245.400002) scale(-1, 1) rotate(-120.000000) translate(-881.099966, -245.400002) " points="873.599966 237.600001 873.599966 253.200002 888.599967 245.400002"/>
        <polygon id="Path-2-Copy-4" transform="translate(530.399952, 336.000005) scale(-1, 1) rotate(-35.000000) translate(-530.399952, -336.000005) " points="524.999952 328.200005 524.999952 343.800005 535.799953 336.000005"/>
        <polygon id="Path-2" transform="translate(1037.399973, 276.000003) scale(-1, 1) rotate(-35.000000) translate(-1037.399973, -276.000003) " points="1031.99997 268.200002 1031.99997 283.800003 1042.79997 276.000003"/>
        <polygon id="Path-2-Copy" transform="translate(1215.299980, 309.600004) scale(-1, 1) rotate(-192.000000) translate(-1215.299980, -309.600004) " points="1208.99998 301.800004 1208.99998 317.400004 1221.59998 309.600004"/>
        <polygon id="Path-2-Copy-2" transform="translate(1206.599979, 243.000001) scale(-1, 1) rotate(-15.000000) translate(-1206.599979, -243.000001) " points="1199.99998 235.200001 1199.99998 250.800002 1213.19998 243.000001"/>
        <polygon id="Path-2-Copy-5" transform="translate(1083.899974, 223.800001) scale(-1, 1) rotate(-95.000000) translate(-1083.899974, -223.800001) " points="1076.39997 216 1076.39997 231.600001 1091.39997 223.800001"/>
        <polygon id="Path-2-Copy-4" transform="translate(956.399969, 336.000005) scale(-1, 1) rotate(-35.000000) translate(-956.399969, -336.000005) " points="950.999969 328.200005 950.999969 343.800005 961.79997 336.000005"/>
        <polygon id="Path-2" transform="translate(226.199940, 285.000003) scale(-1, 1) rotate(-35.000000) translate(-226.199940, -285.000003) " points="220.79994 277.200003 220.79994 292.800003 231.599941 285.000003"/>
        <polygon id="Path-2-Copy" transform="translate(404.099947, 318.600004) scale(-1, 1) rotate(-192.000000) translate(-404.099947, -318.600004) " points="397.799947 310.800004 397.799947 326.400005 410.399948 318.600004"/>
        <polygon id="Path-2-Copy-2" transform="translate(395.399947, 252.000002) scale(-1, 1) rotate(-15.000000) translate(-395.399947, -252.000002) " points="388.799947 244.200001 388.799947 259.800002 401.999947 252.000002"/>
        <polygon id="Path-2-Copy-5" transform="translate(272.699942, 232.800001) scale(-1, 1) rotate(-95.000000) translate(-272.699942, -232.800001) " points="265.199942 225.000001 265.199942 240.600001 280.199942 232.800001"/>
        <polygon id="Path-2-Copy-3" transform="translate(495.899951, 254.400002) scale(-1, 1) rotate(-120.000000) translate(-495.899951, -254.400002) " points="488.399951 246.600002 488.399951 262.200002 503.399951 254.400002"/>
        <polygon id="Path-2-Copy-4" transform="translate(145.199937, 345.000005) scale(-1, 1) rotate(-35.000000) translate(-145.199937, -345.000005) " points="139.799937 337.200005 139.799937 352.800006 150.599937 345.000005"/>
        <polygon id="Path-2" transform="translate(148.697326, 428.151277) scale(-1, 1) rotate(-35.000000) translate(-148.697326, -428.151277) " points="143.297325 420.351277 143.297325 435.951278 154.097326 428.151277"/>
        <polygon id="Path-2-Copy" transform="translate(17.300001, 339.600004) scale(-1, 1) rotate(-192.000000) translate(-17.300001, -339.600004) " points="11.0000004 331.800003 11.0000004 347.400004 23.6000009 339.600004"/>
        <polygon id="Path-2-Copy-2" transform="translate(8.600000, 273.000001) scale(-1, 1) rotate(-15.000000) translate(-8.600000, -273.000001) " points="2 265.200001 2 280.800001 15.2000005 273.000001"/>
        <polygon id="Path-2-Copy-5" transform="translate(195.197327, 375.951275) scale(-1, 1) rotate(-95.000000) translate(-195.197327, -375.951275) " points="187.697327 368.151275 187.697327 383.751276 202.697328 375.951275"/>
        <polygon id="Path-2-Copy-3" transform="translate(109.100004, 275.400001) scale(-1, 1) rotate(-120.000000) translate(-109.100004, -275.400001) " points="101.600004 267.600001 101.600004 283.200001 116.600005 275.400001"/>
        <polygon id="Path-2-Copy-4" transform="translate(99.697322, 368.151280) scale(-1, 1) rotate(-35.000000) translate(-99.697322, -368.151280) " points="94.2973221 360.351279 94.2973221 375.95128 105.097323 368.15128"/>
        <polygon id="Path-2-Copy-6" transform="translate(1756.200001, 374.400007) rotate(-35.000000) translate(-1756.200001, -374.400007) " points="1750.8 366.600006 1750.8 382.200007 1761.6 374.400007"/>
        <polygon id="Path-2-Copy-7" transform="translate(1578.299994, 408.000008) rotate(-192.000000) translate(-1578.299994, -408.000008) " points="1571.99999 400.200008 1571.99999 415.800008 1584.59999 408.000008"/>
        <polygon id="Path-2-Copy-8" transform="translate(1586.999994, 341.400005) rotate(-15.000000) translate(-1586.999994, -341.400005) " points="1580.39999 333.600005 1580.39999 349.200006 1593.59999 341.400005"/>
        <polygon id="Path-2-Copy-9" transform="translate(1709.699999, 322.200005) rotate(-95.000000) translate(-1709.699999, -322.200005) " points="1702.2 314.400004 1702.2 330.000005 1717.2 322.200005"/>
        <polygon id="Path-2-Copy-10" transform="translate(1486.499990, 343.800005) rotate(-120.000000) translate(-1486.499990, -343.800005) " points="1478.99999 336.000005 1478.99999 351.600006 1493.99999 343.800005"/>
        <polygon id="Path-2-Copy-11" transform="translate(1837.200004, 434.400009) rotate(-35.000000) translate(-1837.200004, -434.400009) " points="1831.8 426.600009 1831.8 442.200009 1842.6 434.400009"/>
        <polygon id="Path-2-Copy-6" transform="translate(944.999969, 383.400007) rotate(-35.000000) translate(-944.999969, -383.400007) " points="939.599969 375.600007 939.599969 391.200007 950.399969 383.400007"/>
        <polygon id="Path-2-Copy-7" transform="translate(767.099962, 417.000008) rotate(-192.000000) translate(-767.099962, -417.000008) " points="760.799962 409.200008 760.799962 424.800009 773.399962 417.000008"/>
        <polygon id="Path-2-Copy-8" transform="translate(775.799962, 350.400006) rotate(-15.000000) translate(-775.799962, -350.400006) " points="769.199962 342.600005 769.199962 358.200006 782.399962 350.400006"/>
        <polygon id="Path-2-Copy-9" transform="translate(898.499967, 331.200005) rotate(-95.000000) translate(-898.499967, -331.200005) " points="890.999967 323.400005 890.999967 339.000005 905.999967 331.200005"/>
        <polygon id="Path-2-Copy-10" transform="translate(675.299958, 352.800006) rotate(-120.000000) translate(-675.299958, -352.800006) " points="667.799958 345.000005 667.799958 360.600006 682.799958 352.800006"/>
        <polygon id="Path-2-Copy-11" transform="translate(1025.999972, 443.400009) rotate(-35.000000) translate(-1025.999972, -443.400009) " points="1020.59997 435.600009 1020.59997 451.20001 1031.39997 443.400009"/>
        <polygon id="Path-2-Copy-6" transform="translate(1142.999977, 405.600008) scale(-1, -1) rotate(-35.000000) translate(-1142.999977, -405.600008) " points="1137.59998 397.800008 1137.59998 413.400008 1148.39998 405.600008"/>
        <polygon id="Path-2-Copy-7" transform="translate(1320.899984, 372.000007) scale(-1, -1) rotate(-192.000000) translate(-1320.899984, -372.000007) " points="1314.59998 364.200006 1314.59998 379.800007 1327.19998 372.000007"/>
        <polygon id="Path-2-Copy-8" transform="translate(1312.199983, 438.600009) scale(-1, -1) rotate(-15.000000) translate(-1312.199983, -438.600009) " points="1305.59998 430.800009 1305.59998 446.40001 1318.79998 438.600009"/>
        <polygon id="Path-2-Copy-9" transform="translate(1189.499979, 457.800010) scale(-1, -1) rotate(-95.000000) translate(-1189.499979, -457.800010) " points="1181.99998 450.00001 1181.99998 465.60001 1196.99998 457.80001"/>
        <polygon id="Path-2-Copy-10" transform="translate(1412.699987, 436.200009) scale(-1, -1) rotate(-120.000000) translate(-1412.699987, -436.200009) " points="1405.19999 428.400009 1405.19999 444.000009 1420.19999 436.200009"/>
        <polygon id="Path-2-Copy-11" transform="translate(1061.999974, 345.600006) scale(-1, -1) rotate(-35.000000) translate(-1061.999974, -345.600006) " points="1056.59997 337.800005 1056.59997 353.400006 1067.39997 345.600006"/>
        <polygon id="Path-2-Copy-6" transform="translate(331.799945, 414.600008) scale(-1, -1) rotate(-35.000000) translate(-331.799945, -414.600008) " points="326.399944 406.800008 326.399944 422.400009 337.199945 414.600008"/>
        <polygon id="Path-2-Copy-7" transform="translate(509.699952, 381.000007) scale(-1, -1) rotate(-192.000000) translate(-509.699952, -381.000007) " points="503.399951 373.200007 503.399951 388.800007 515.999952 381.000007"/>
        <polygon id="Path-2-Copy-8" transform="translate(500.999951, 447.600010) scale(-1, -1) rotate(-15.000000) translate(-500.999951, -447.600010) " points="494.399951 439.800009 494.399951 455.40001 507.599952 447.60001"/>
        <polygon id="Path-2-Copy-9" transform="translate(378.299946, 466.800010) scale(-1, -1) rotate(-95.000000) translate(-378.299946, -466.800010) " points="370.799946 459.00001 370.799946 474.600011 385.799947 466.80001"/>
        <polygon id="Path-2-Copy-10" transform="translate(601.499955, 445.200009) scale(-1, -1) rotate(-120.000000) translate(-601.499955, -445.200009) " points="593.999955 437.400009 593.999955 453.00001 608.999956 445.200009"/>
        <polygon id="Path-2-Copy-11" transform="translate(250.799941, 354.600006) scale(-1, -1) rotate(-35.000000) translate(-250.799941, -354.600006) " points="245.399941 346.800006 245.399941 362.400006 256.199942 354.600006"/>
        <polygon id="Path-2" transform="translate(1827.000009, 289.151277) rotate(-35.000000) translate(-1827.000009, -289.151277) " points="1821.60001 281.351277 1821.60001 296.951278 1832.40001 289.151277"/>
        <polygon id="Path-2-Copy" transform="translate(1816.300009, 246.600004) rotate(-192.000000) translate(-1816.300009, -246.600004) " points="1810.00001 238.800003 1810.00001 254.400004 1822.60001 246.600004"/>
        <polygon id="Path-2-Copy-2" transform="translate(1825.000009, 180.000001) rotate(-15.000000) translate(-1825.000009, -180.000001) " points="1818.40001 172.200001 1818.40001 187.800001 1831.60001 180.000001"/>
        <polygon id="Path-2-Copy-3" transform="translate(1724.500005, 182.400001) rotate(-120.000000) translate(-1724.500005, -182.400001) " points="1717 174.600001 1717 190.200001 1732.00001 182.400001"/>
        <polygon id="Path-2-Copy-4" transform="translate(1884.000012, 349.151280) rotate(-35.000000) translate(-1884.000012, -349.151280) " points="1878.60001 341.351279 1878.60001 356.95128 1889.40001 349.15128"/>
      </g>
    </g>
  </g>
</svg>